<svg width="23" height="22" viewBox="0 0 23 22" fill="none" xmlns="http://www.w3.org/2000/svg">
<path d="M16.9958 8.77279V2.75731C16.9958 1.79096 16.2154 1 15.261 1H2.73476C1.7804 1 1 1.79101 1 2.75731V15.4531C1 16.4195 1.7804 17.2104 2.73476 17.2104H10.3037C11.222 19.4363 13.3884 21 15.9171 21C19.2767 21 22 18.2398 22 14.8348C22 11.8033 19.8399 9.28882 16.9958 8.77279ZM9.90176 15.7043H2.31302V4.64436H15.6828V8.68146C12.4332 8.80751 9.83509 11.5092 9.83509 14.8348C9.83417 15.1307 9.86212 15.4203 9.90176 15.7043ZM19.2767 16.0377H17.0255H14.8095H12.5584V13.7917H14.8095H17.0255H19.2767V16.0377Z" fill="white" stroke="white" stroke-width="0.5"/>
</svg>
