<svg width="17" height="20" viewBox="0 0 17 20" fill="none" xmlns="http://www.w3.org/2000/svg">
<path d="M11.1832 1.52576H7.33046C7.33046 0.862101 6.84275 0.301554 6.16722 0.0921504C5.9868 0.0364268 5.79613 0 5.5937 0C4.63588 0 3.85694 0.684587 3.85694 1.52576V6.72163C3.85694 7.5628 4.63588 8.24742 5.5937 8.24742C5.79613 8.24742 5.9868 8.21096 6.16722 8.15531C6.84275 7.94587 7.33046 7.38532 7.33046 6.72163V4.61856C7.33046 4.28512 7.04514 4.02097 6.67913 3.97649C6.64539 3.97228 6.61467 3.95875 6.5794 3.95875C6.16429 3.95875 5.82834 4.25421 5.82834 4.61856V6.72163C5.82834 6.83536 5.7227 6.92784 5.59365 6.92784C5.46461 6.92784 5.35897 6.83536 5.35897 6.72163V2.72711L10.6706 2.72392V5.29963C10.6706 6.05253 11.3665 6.66365 12.2225 6.66365L15.096 6.65658L15.1276 18.0338C15.1276 18.4539 14.7404 18.7951 14.2615 18.7951H2.73777C2.25942 18.7951 1.87075 18.4539 1.87075 18.0338V3.49195C1.87075 3.07473 2.25584 2.73581 2.73042 2.73226V1.52641C1.49966 1.52997 0.5 2.41043 0.5 3.49195V18.0338C0.5 19.1176 1.50338 20 2.73777 20H14.2615C15.4951 20 16.5 19.1176 16.5 18.0338V6.17948L11.1832 1.52576ZM5.35901 1.52576C5.35901 1.41202 5.46465 1.31958 5.5937 1.31958C5.72275 1.31958 5.82838 1.41202 5.82838 1.52576H5.35901Z" fill="white"/>
</svg>
