<svg width="22" height="23" viewBox="0 0 22 23" fill="none" xmlns="http://www.w3.org/2000/svg">
<path d="M11.5669 2.99829H6.8059C4.90131 2.99829 3.94902 2.99829 3.22157 3.36895C2.58168 3.69499 2.06144 4.21523 1.7354 4.85512C1.36475 5.58257 1.36475 6.53486 1.36475 8.43944V15.6943C1.36475 17.5989 1.36475 18.5511 1.7354 19.2787C2.06144 19.9186 2.58168 20.4388 3.22157 20.7648C3.94902 21.1355 4.90131 21.1355 6.8059 21.1355H14.0608C15.9654 21.1355 16.9176 21.1355 17.6451 20.7648C18.285 20.4388 18.8052 19.9186 19.1312 19.2787C19.5019 18.5511 19.5019 17.5989 19.5019 15.6943V10.9333" stroke="white" stroke-width="2" stroke-linecap="round" stroke-linejoin="round"/>
<path d="M1.36475 16.6011L6.23105 11.7348C6.67375 11.2922 7.39148 11.2922 7.83418 11.7348L11.5669 15.4676M11.5669 15.4676L14.7329 12.3016C15.1755 11.859 15.8933 11.859 16.336 12.3016L19.5019 15.4676M11.5669 15.4676L14.1174 18.0181" stroke="white" stroke-width="2" stroke-linecap="round" stroke-linejoin="round"/>
<path d="M17.8017 1.86475V4.69868M17.8017 4.69868V7.53261M17.8017 4.69868H14.9678M17.8017 4.69868H20.6356" stroke="white" stroke-width="2" stroke-linecap="round" stroke-linejoin="round"/>
</svg>
