<svg width="154" height="33" viewBox="0 0 154 33" fill="none" xmlns="http://www.w3.org/2000/svg">
<path d="M6.85938 22.9011L0.204652 15.5321C-0.251943 15.0272 0.104928 14.2119 0.787195 14.2119H7.44192C7.87752 14.2119 8.22915 14.5643 8.22915 15.0009V22.3699C8.22915 23.0905 7.34222 23.4324 6.85938 22.9011Z" fill="#BABABA"/>
<path d="M11.0896 13.9858L24.1209 0.24721C24.2678 0.0894153 24.4777 0 24.6929 0L32.1926 0.0315576C32.8854 0.0315576 33.237 0.862606 32.7594 1.36229L12.2284 22.9854C11.7403 23.5008 10.8691 23.1537 10.8691 22.4436V14.5276C10.8691 14.3277 10.9479 14.1331 11.0843 13.9858H11.0896Z" fill="#BABABA"/>
<path d="M19.2819 0.0422363H6.17185C5.47384 0.0422363 5.14845 0.910105 5.67852 1.36771L12.8266 7.59006C13.131 7.85305 13.5876 7.83201 13.8657 7.54272L19.8224 1.32037C20.2843 0.841727 19.9432 0.0422363 19.2766 0.0422363H19.2819Z" fill="#BABABA"/>
<path d="M30.0616 10.0779L29.899 22.3964C29.8885 23.117 29.0068 23.4483 28.5239 22.9118L22.9293 16.6579C22.6564 16.3528 22.6617 15.8847 22.9451 15.5849L28.7024 9.51509C29.1957 8.99436 30.0721 9.35203 30.0616 10.0674V10.0779Z" fill="#BABABA"/>
<g opacity="0.98">
<path d="M38.1809 1.65137H57.2109V5.90655H42.7941V11.0559H56.6861V15.3111H42.7941V20.4604H57.2109V24.7472H38.1809V1.65137Z" fill="#BABABA"/>
<path d="M76.9966 24.7472L76.5348 22.5696C74.8554 24.2528 72.4517 25.2416 69.6544 25.2416C64.191 25.2416 60.0764 21.5124 60.0764 16.5314C60.0764 11.5503 64.1595 7.75274 69.6544 7.75274C72.3887 7.75274 74.7924 8.71003 76.4666 10.3616V1.65137H81.0745V24.7472H76.9914H76.9966ZM70.6411 21.1495C74.1311 21.1495 76.4666 19.2665 76.4666 16.5314C76.4666 13.7963 74.0944 11.8133 70.6411 11.8133C67.1877 11.8133 64.6843 13.791 64.6843 16.5314C64.6843 19.2717 67.1877 21.1495 70.6411 21.1495Z" fill="#BABABA"/>
<path d="M99.8421 8.25257H104.45V24.7473H100.304L99.8736 22.007C98.4251 24.0215 96.2523 25.2417 93.686 25.2417C88.7474 25.2417 85.2888 21.4126 85.2888 15.9371V8.24731H89.8968V15.9371C89.8968 18.9089 91.9698 20.9497 94.8983 20.9497C97.8268 20.9497 99.8369 18.8721 99.8369 15.9371V8.24731L99.8421 8.25257Z" fill="#BABABA"/>
<path d="M124.398 22.1384C122.457 23.7216 119.89 24.6473 117.156 24.6473C111.693 24.6473 108.134 21.118 108.927 16.2684C109.682 11.3189 114.359 7.75806 119.859 7.75806C122.656 7.75806 124.897 8.68378 126.309 10.3301L127.101 8.25248H131.184L128.649 24.2896C127.857 29.339 123.018 32.9999 117.224 32.9999C111.923 32.9999 108.433 30.1964 108.008 26.2673H112.616C113.403 27.9189 115.282 28.9709 117.754 28.9709C121.045 28.9709 123.616 27.0878 124.042 24.2844L124.404 22.1384H124.398ZM118.804 20.592C122.294 20.592 124.929 18.8089 125.322 16.2369C125.716 13.628 123.643 11.8134 120.184 11.8134C116.726 11.8134 113.928 13.628 113.535 16.2369C113.141 18.7458 115.345 20.592 118.804 20.592Z" fill="#BABABA"/>
<path d="M144.546 7.75806C150.409 7.75806 154.093 11.2874 153.237 16.5367C152.445 21.686 147.643 25.2469 141.781 25.2469C135.918 25.2469 132.297 21.5177 133.058 16.5367C133.882 11.4873 138.752 7.75806 144.546 7.75806ZM142.437 20.9549C145.727 20.9549 148.231 19.1087 148.624 16.5314C149.055 13.891 147.144 12.0132 143.848 12.0132C140.553 12.0132 138.086 13.8963 137.661 16.5314C137.267 19.1035 139.309 20.9549 142.437 20.9549Z" fill="#BABABA"/>
</g>
</svg>
