<svg width="176" height="125" viewBox="0 0 176 125" fill="none" xmlns="http://www.w3.org/2000/svg">
<path d="M36.6064 123.034L1.09216 83.7079C-1.34454 81.0132 0.559968 76.6624 4.20102 76.6624H39.7153C42.0399 76.6624 43.9165 78.543 43.9165 80.8728V120.199C43.9165 124.044 39.1831 125.869 36.6064 123.034Z" fill="#122300"/>
<path d="M59.1817 75.4558L128.726 2.13703C129.51 1.29493 130.63 0.817749 131.779 0.817749L171.802 0.986162C175.499 0.986162 177.376 5.42121 174.827 8.08786L65.2595 123.484C62.6547 126.234 58.0054 124.382 58.0054 120.592V78.347C58.0054 77.2803 58.4255 76.2417 59.1537 75.4558H59.1817Z" fill="#355FFF"/>
<path d="M102.901 1.04248H32.9372C29.2121 1.04248 27.4756 5.67403 30.3044 8.11611L68.4514 41.3229C70.0759 42.7264 72.5126 42.6141 73.997 41.0703L105.786 7.86348C108.251 5.30912 106.43 1.04248 102.873 1.04248H102.901Z" fill="#D3E525"/>
<path d="M160.429 54.5995L159.561 120.339C159.505 124.185 154.8 125.953 152.223 123.09L122.366 89.7151C120.91 88.087 120.938 85.5888 122.45 83.9888L153.175 51.5961C155.808 48.8171 160.485 50.7259 160.429 54.5434V54.5995Z" fill="#D992FA"/>
</svg>
